<?xml version="1.0" encoding="UTF-8" standalone="no"?>
<!-- Created with Inkscape (http://www.inkscape.org/) -->

<svg
   xmlns:dc="http://purl.org/dc/elements/1.1/"
   xmlns:cc="http://creativecommons.org/ns#"
   xmlns:rdf="http://www.w3.org/1999/02/22-rdf-syntax-ns#"
   xmlns:svg="http://www.w3.org/2000/svg"
   xmlns="http://www.w3.org/2000/svg"
   xmlns:sodipodi="http://sodipodi.sourceforge.net/DTD/sodipodi-0.dtd"
   xmlns:inkscape="http://www.inkscape.org/namespaces/inkscape"
   width="185.78143mm"
   height="94.488609mm"
   viewBox="0 0 185.78143 94.488609"
   version="1.1"
   id="svg8"
   inkscape:version="0.92.3 (2405546, 2018-03-11)"
   sodipodi:docname="disrupt-combined.svg">
  <defs
     id="defs2" />
  <sodipodi:namedview
     id="base"
     pagecolor="#ffffff"
     bordercolor="#666666"
     borderopacity="1.0"
     inkscape:pageopacity="0.0"
     inkscape:pageshadow="2"
     inkscape:zoom="1.4"
     inkscape:cx="298.21594"
     inkscape:cy="169.56907"
     inkscape:document-units="mm"
     inkscape:current-layer="g7279"
     showgrid="false"
     inkscape:window-width="2400"
     inkscape:window-height="1284"
     inkscape:window-x="2391"
     inkscape:window-y="-9"
     inkscape:window-maximized="1"
     fit-margin-top="0"
     fit-margin-left="0"
     fit-margin-right="0"
     fit-margin-bottom="0" />
  <metadata
     id="metadata5">
    <rdf:RDF>
      <cc:Work
         rdf:about="">
        <dc:format>image/svg+xml</dc:format>
        <dc:type
           rdf:resource="http://purl.org/dc/dcmitype/StillImage" />
        <dc:title></dc:title>
      </cc:Work>
    </rdf:RDF>
  </metadata>
  <g
     inkscape:label="Layer 1"
     inkscape:groupmode="layer"
     id="layer1"
     transform="translate(-12.942615,-43.771448)">
    <g
       aria-label="DISRUPT"
       style="font-style:normal;font-weight:normal;font-size:35.61643982px;line-height:1.25;font-family:sans-serif;letter-spacing:0px;word-spacing:0px;fill:#000000;fill-opacity:1;stroke:none;stroke-width:0.8904109"
       id="text817">
      <g
         id="g7289"
         transform="translate(-4.766428)"
         style="fill:#7289da;fill-opacity:1">
        <g
           style="fill:#7289da;fill-opacity:1"
           inkscape:export-ydpi="96"
           inkscape:export-xdpi="96"
           transform="matrix(1.3262681,0,0,1.3262681,-55.389084,-36.828121)"
           id="g4569">
          <path
             id="path832"
             d="m 64.771038,106.01567 h -9.655389 v 10.93503 l 6.427232,5.81649 v -10.61511 h 3.460818 c 2.181187,0 3.257239,1.07605 3.257239,2.76284 v 8.11402 c 0,1.68678 -1.017886,2.82101 -3.257239,2.82101 h -9.88805 v 6.16548 h 9.655389 c 5.176686,0.0291 10.033463,-2.55926 10.033463,-8.55026 v -8.75384 c 0,-6.04915 -4.856777,-8.69566 -10.033463,-8.69566 z"
             class="st0"
             inkscape:connector-curvature="0"
             style="fill:#7289da;fill-opacity:1;stroke-width:0.29082498"
             sodipodi:nodetypes="sccccsssscccsss" />
          <path
             inkscape:connector-curvature="0"
             d="m 84.168646,106.37183 h -6.375343 v 25.21644 h 6.375343 z"
             style="font-style:normal;font-variant:normal;font-weight:900;font-stretch:normal;font-size:35.61643982px;font-family:'Uni Sans';-inkscape-font-specification:'Uni Sans, Heavy';font-variant-ligatures:normal;font-variant-caps:normal;font-variant-numeric:normal;font-feature-settings:normal;text-align:start;writing-mode:lr-tb;text-anchor:start;fill:#7289da;fill-opacity:1;stroke-width:0.8904109"
             id="path4548" />
          <path
             inkscape:connector-curvature="0"
             d="m 86.947285,127.38553 c 2.350685,3.0274 5.556164,4.55891 8.583562,4.55891 4.630133,0 9.758903,-2.67124 9.972603,-7.55069 0.28493,-6.19726 -4.20274,-7.76438 -8.690412,-8.58356 -1.958904,-0.4274 -3.276712,-1.13973 -3.347945,-2.35069 0.106849,-2.92054 4.630137,-3.02739 7.265757,-0.21369 l 4.16712,-3.20548 c -2.6,-3.16987 -5.556164,-4.02466 -8.619178,-4.02466 -4.630137,0 -9.117809,2.6 -9.117809,7.55068 0,4.80822 3.70411,7.37261 7.764384,8.0137 2.065754,0.28493 4.380822,1.10411 4.309589,2.52877 -0.178082,2.70685 -5.734246,2.56438 -8.263014,-0.49863 z"
             style="font-style:normal;font-variant:normal;font-weight:900;font-stretch:normal;font-size:35.61643982px;font-family:'Uni Sans';-inkscape-font-specification:'Uni Sans, Heavy';font-variant-ligatures:normal;font-variant-caps:normal;font-variant-numeric:normal;font-feature-settings:normal;text-align:start;writing-mode:lr-tb;text-anchor:start;fill:#7289da;fill-opacity:1;stroke-width:0.8904109"
             id="path4550" />
          <path
             inkscape:connector-curvature="0"
             d="m 121.68945,131.58827 h 7.94247 l -6.87397,-8.65479 c 3.06301,-0.96165 4.95068,-3.59726 4.95068,-8.26302 -0.14246,-5.91233 -4.16712,-8.29863 -9.36712,-8.29863 h -10.07945 v 25.21644 h 6.44657 v -8.0137 h 1.13973 z m -6.98082,-13.49863 v -5.76986 h 3.73973 c 4.02466,0 4.02466,5.76986 0,5.76986 z"
             style="font-style:normal;font-variant:normal;font-weight:900;font-stretch:normal;font-size:35.61643982px;font-family:'Uni Sans';-inkscape-font-specification:'Uni Sans, Heavy';font-variant-ligatures:normal;font-variant-caps:normal;font-variant-numeric:normal;font-feature-settings:normal;text-align:start;writing-mode:lr-tb;text-anchor:start;fill:#7289da;fill-opacity:1;stroke-width:0.8904109"
             id="path4552" />
          <path
             inkscape:connector-curvature="0"
             d="m 137.38295,106.37183 h -6.44658 v 16.77535 c -0.0356,11.82465 20.08767,11.82465 20.12329,0 v -16.77535 h -6.44658 v 16.77535 c -0.0356,4.06027 -7.23013,4.06027 -7.23013,0 z"
             style="font-style:normal;font-variant:normal;font-weight:900;font-stretch:normal;font-size:35.61643982px;font-family:'Uni Sans';-inkscape-font-specification:'Uni Sans, Heavy';font-variant-ligatures:normal;font-variant-caps:normal;font-variant-numeric:normal;font-feature-settings:normal;text-align:start;writing-mode:lr-tb;text-anchor:start;fill:#7289da;fill-opacity:1;stroke-width:0.8904109"
             id="path4554" />
          <path
             inkscape:connector-curvature="0"
             d="m 154.86951,131.58827 h 6.37534 v -7.3726 h 3.73973 c 6.09041,0 9.18904,-4.45206 9.18904,-8.93973 0,-4.45205 -3.06301,-8.90411 -9.22466,-8.90411 h -10.07945 z m 6.37534,-13.03561 v -6.23288 h 3.70411 c 3.84658,-0.0356 3.84658,6.26849 0,6.23288 z"
             style="font-style:normal;font-variant:normal;font-weight:900;font-stretch:normal;font-size:35.61643982px;font-family:'Uni Sans';-inkscape-font-specification:'Uni Sans, Heavy';font-variant-ligatures:normal;font-variant-caps:normal;font-variant-numeric:normal;font-feature-settings:normal;text-align:start;writing-mode:lr-tb;text-anchor:start;fill:#7289da;fill-opacity:1;stroke-width:0.8904109"
             id="path4556" />
          <path
             inkscape:connector-curvature="0"
             d="m 195.19399,112.39101 v -6.05479 h -19.83835 v 6.05479 h 6.69589 v 19.19726 h 6.44657 v -19.19726 z"
             style="font-style:normal;font-variant:normal;font-weight:900;font-stretch:normal;font-size:35.61643982px;font-family:'Uni Sans';-inkscape-font-specification:'Uni Sans, Heavy';font-variant-ligatures:normal;font-variant-caps:normal;font-variant-numeric:normal;font-feature-settings:normal;text-align:start;writing-mode:lr-tb;text-anchor:start;fill:#7289da;fill-opacity:1;stroke-width:0.8904109"
             id="path4558" />
        </g>
      </g>
      <g
         id="g7279"
         transform="matrix(0.26458333,0,0,0.26458333,74.709915,39.47689)">
        <g
           transform="translate(-164.63987,-181.43346)"
           id="svg_1"
           style="fill:#d8ff78;fill-opacity:1;stroke:#111111;stroke-opacity:1" />
        <g
           transform="rotate(31.130348,706.34513,-175.24713)"
           id="svg_15"
           style="fill:#d8ff78;fill-opacity:1;stroke:#111111;stroke-opacity:1" />
        <g
           id="g7294"
           transform="translate(7.244613)">
          <path
             style="color:#000000;font-style:normal;font-variant:normal;font-weight:normal;font-stretch:normal;font-size:medium;line-height:normal;font-family:sans-serif;font-variant-ligatures:normal;font-variant-position:normal;font-variant-caps:normal;font-variant-numeric:normal;font-variant-alternates:normal;font-feature-settings:normal;text-indent:0;text-align:start;text-decoration:none;text-decoration-line:none;text-decoration-style:solid;text-decoration-color:#000000;letter-spacing:normal;word-spacing:normal;text-transform:none;writing-mode:lr-tb;direction:ltr;text-orientation:mixed;dominant-baseline:auto;baseline-shift:baseline;text-anchor:start;white-space:normal;shape-padding:0;clip-rule:nonzero;display:inline;overflow:visible;visibility:visible;opacity:1;isolation:auto;mix-blend-mode:normal;color-interpolation:sRGB;color-interpolation-filters:linearRGB;solid-color:#000000;solid-opacity:1;vector-effect:none;fill:#111111;fill-opacity:1;fill-rule:nonzero;stroke:none;stroke-width:6.27559328;stroke-linecap:butt;stroke-linejoin:miter;stroke-miterlimit:4;stroke-dasharray:none;stroke-dashoffset:0;stroke-opacity:1;color-rendering:auto;image-rendering:auto;shape-rendering:auto;text-rendering:auto;enable-background:accumulate"
             d="m -36.50225,16.231807 c -0.922184,3.531139 -1.227436,5.093994 -1.462134,6.308647 -4.2074,17.616118 -4.146928,36.017739 -1.250635,53.683291 l 0.0046,0.02727 0.0046,0.02727 c 2.580181,14.191227 6.999848,29.195655 17.513678,40.499505 7.397641,8.1096 19.1173821,11.90696 29.8697441,8.85099 l 0.354114,-0.10125 0.32174,-0.18202 C 19.798488,110.59584 27.814954,88.913149 36.318651,71.4557 l -0.09167,-0.04485 c 0.532035,-0.739196 0.957465,-1.778978 0.76613,-3.035325 -0.193732,-1.272149 -1.171456,-2.440615 -2.159155,-2.969392 l -0.663203,-0.354447 -0.753961,-0.01497 c -4.587252,-0.09487 -8.025129,2.10428 -10.657244,2.851722 l -0.109161,0.03015 -0.106137,0.03823 C 13.186716,71.356293 2.763477,73.040171 -5.635134,68.641035 -15.457569,63.451136 -21.152552,52.6013 -25.058653,41.678127 -27.874606,32.941273 -31.159431,25.660719 -30.34165,17.329816 Z"
             id="svg_34"
             inkscape:connector-curvature="0"
             sodipodi:nodetypes="cccccccccccccccccccccc" />
          <path
             style="color:#000000;font-style:normal;font-variant:normal;font-weight:normal;font-stretch:normal;font-size:medium;line-height:normal;font-family:sans-serif;font-variant-ligatures:normal;font-variant-position:normal;font-variant-caps:normal;font-variant-numeric:normal;font-variant-alternates:normal;font-feature-settings:normal;text-indent:0;text-align:start;text-decoration:none;text-decoration-line:none;text-decoration-style:solid;text-decoration-color:#000000;letter-spacing:normal;word-spacing:normal;text-transform:none;writing-mode:lr-tb;direction:ltr;text-orientation:mixed;dominant-baseline:auto;baseline-shift:baseline;text-anchor:start;white-space:normal;shape-padding:0;clip-rule:nonzero;display:inline;overflow:visible;visibility:visible;opacity:1;isolation:auto;mix-blend-mode:normal;color-interpolation:sRGB;color-interpolation-filters:linearRGB;solid-color:#000000;solid-opacity:1;vector-effect:none;fill:#111111;fill-opacity:1;fill-rule:nonzero;stroke:none;stroke-width:6.27559328;stroke-linecap:butt;stroke-linejoin:miter;stroke-miterlimit:4;stroke-dasharray:none;stroke-dashoffset:0;stroke-opacity:1;color-rendering:auto;image-rendering:auto;shape-rendering:auto;text-rendering:auto;enable-background:accumulate"
             d="m 257.27665,16.2314 c 0.92221,3.531133 1.22739,5.094007 1.46213,6.308646 4.20741,17.616099 4.14694,36.017742 1.25065,53.683282 l -0.004,0.02748 -0.004,0.02748 c -2.58018,14.191232 -6.99984,29.195652 -17.51369,40.499482 -7.39761,8.10962 -19.11735,11.90697 -29.86972,8.85101 l -0.35413,-0.10125 -0.32174,-0.18203 C 200.97576,110.59581 192.9593,88.913123 184.45559,71.45568 l 0.0916,-0.04489 c -0.53186,-0.739321 -0.95745,-1.778961 -0.76648,-3.035227 0.19371,-1.27216 1.17146,-2.440615 2.15915,-2.969382 l 0.66318,-0.354498 0.75396,-0.01496 c 4.58726,-0.09487 8.02513,2.104283 10.65723,2.851731 l 0.10915,0.03015 0.10623,0.03821 c 9.35754,3.399484 19.78077,5.083349 28.17939,0.684206 9.82244,-5.189888 15.51741,-16.039719 19.42352,-26.9629 2.81597,-8.736848 6.10079,-16.017403 5.28301,-24.348296 z"
             id="svg_34-9"
             inkscape:connector-curvature="0"
             sodipodi:nodetypes="cccccccccccccccccccccc" />
          <path
             style="fill:#7289da;stroke-width:0.22161329"
             d="m 79.801282,38.44324 c -2.93752,0.0118 -27.23873,0.70155 -52.87525,19.75091 0,0 -27.34558945,49.18448 -27.34558945,109.76262 0,0 15.95132945,27.34532 57.91925945,28.67463 0,0 7.02627,-8.35564 12.72327,-15.57185 -24.11731,-7.2162 -33.23247,-22.21774 -33.23247,-22.21774 0,0 1.89941,1.32908 5.31761,3.22809 0.1899,0 0.37922,0.1896 0.75902,0.3795 0.56971,0.3798 1.13959,0.56973 1.70929,0.94952 4.7475,2.6586 9.49485,4.74778 13.86255,6.45689 7.78591,3.2283 17.0913,6.07653 27.9156,8.16543 14.242508,2.65861 30.953418,3.60796 49.183818,0.18976 8.92532,-1.7091 18.04109,-4.17753 27.53609,-8.16543 6.6465,-2.46871 14.05234,-6.07645 21.83824,-11.20376 0,0 -9.49484,15.38193 -34.37175,22.40824 5.697,7.0263 12.53351,15.19159 12.53351,15.19159 41.96792,-1.32929 57.91926,-28.67478 57.91926,-28.48487 0,-60.57814 -27.34559,-109.76262 -27.34559,-109.76262 -27.1557,-20.31931 -53.1724,-19.74944 -53.1724,-19.74944 l -2.65806,3.03832 c 32.28302,9.6849 47.28478,23.92776 47.28478,23.92776 -19.74962,-10.6344 -39.11899,-15.95198 -57.1595,-18.04088 -13.67281,-1.5192 -26.77642,-1.13895 -38.360328,0.38024 -1.13939,0 -2.08867,0.18963 -3.22807,0.37952 -6.6465,0.7596 -22.78787,3.03821 -43.10718,11.96351 -7.02631,3.0384 -11.20449,5.31761 -11.20449,5.31761 0,0 15.57181,-15.00262 49.75383,-24.68753 l -1.89904,-2.27855 c 0,0 -0.10057,-0.003 -0.29641,-10e-4 z m -4.8307,70.07474 c 10.8243,0 19.559797,9.30481 19.369907,20.88871 0,11.58391 -8.545607,20.88944 -19.369907,20.88944 -10.63442,0 -19.36992,-9.30553 -19.36992,-20.88944 0,-11.5839 8.54561,-20.88871 19.36992,-20.88871 z m 69.313498,0 c 10.63441,0 19.36991,9.30481 19.36991,20.88871 0,11.58391 -8.5456,20.88944 -19.36991,20.88944 -10.63441,0 -19.36992,-9.30553 -19.36992,-20.88944 0,-11.5839 8.54561,-20.88871 19.36992,-20.88871 z"
             id="path8"
             inkscape:connector-curvature="0" />
        </g>
      </g>
    </g>
  </g>
  <style
     id="style830">.st0{fill:#FFFFFF;}</style>
  <style
     id="style830-2">.st0{fill:#FFFFFF;}</style>
</svg>
