<?xml version="1.0" encoding="UTF-8" standalone="no"?>
<!-- Created with Inkscape (http://www.inkscape.org/) -->

<svg
   xmlns:dc="http://purl.org/dc/elements/1.1/"
   xmlns:cc="http://creativecommons.org/ns#"
   xmlns:rdf="http://www.w3.org/1999/02/22-rdf-syntax-ns#"
   xmlns:svg="http://www.w3.org/2000/svg"
   xmlns="http://www.w3.org/2000/svg"
   xmlns:sodipodi="http://sodipodi.sourceforge.net/DTD/sodipodi-0.dtd"
   xmlns:inkscape="http://www.inkscape.org/namespaces/inkscape"
   width="185.78143mm"
   height="89.127068mm"
   viewBox="0 0 185.78143 89.127067"
   version="1.1"
   id="svg8"
   inkscape:version="0.92.3 (2405546, 2018-03-11)"
   sodipodi:docname="disrupt-combined-light.svg">
  <defs
     id="defs2" />
  <sodipodi:namedview
     id="base"
     pagecolor="#ffffff"
     bordercolor="#666666"
     borderopacity="1.0"
     inkscape:pageopacity="0.0"
     inkscape:pageshadow="2"
     inkscape:zoom="1.979899"
     inkscape:cx="256.57671"
     inkscape:cy="190.19779"
     inkscape:document-units="mm"
     inkscape:current-layer="text817"
     showgrid="false"
     inkscape:window-width="2400"
     inkscape:window-height="1284"
     inkscape:window-x="2391"
     inkscape:window-y="-9"
     inkscape:window-maximized="1"
     fit-margin-top="0"
     fit-margin-left="0"
     fit-margin-right="0"
     fit-margin-bottom="0" />
  <metadata
     id="metadata5">
    <rdf:RDF>
      <cc:Work
         rdf:about="">
        <dc:format>image/svg+xml</dc:format>
        <dc:type
           rdf:resource="http://purl.org/dc/dcmitype/StillImage" />
        <dc:title></dc:title>
      </cc:Work>
    </rdf:RDF>
  </metadata>
  <g
     inkscape:label="Layer 1"
     inkscape:groupmode="layer"
     id="layer1"
     transform="translate(-12.942615,-49.132985)">
    <g
       aria-label="DISRUPT"
       style="font-style:normal;font-weight:normal;font-size:35.61643982px;line-height:1.25;font-family:sans-serif;letter-spacing:0px;word-spacing:0px;fill:#000000;fill-opacity:1;stroke:none;stroke-width:0.8904109"
       id="text817">
      <g
         id="g7289"
         transform="translate(-4.766428)"
         style="fill:#ffffff;fill-opacity:1">
        <g
           style="fill:#ffffff;fill-opacity:1"
           inkscape:export-ydpi="96"
           inkscape:export-xdpi="96"
           transform="matrix(1.3262681,0,0,1.3262681,-55.389084,-36.828121)"
           id="g4569">
          <path
             id="path832"
             d="m 64.771038,106.01567 h -9.655389 v 10.93503 l 6.427232,5.81649 v -10.61511 h 3.460818 c 2.181187,0 3.257239,1.07605 3.257239,2.76284 v 8.11402 c 0,1.68678 -1.017886,2.82101 -3.257239,2.82101 h -9.88805 v 6.16548 h 9.655389 c 5.176686,0.0291 10.033463,-2.55926 10.033463,-8.55026 v -8.75384 c 0,-6.04915 -4.856777,-8.69566 -10.033463,-8.69566 z"
             class="st0"
             inkscape:connector-curvature="0"
             style="fill:#ffffff;fill-opacity:1;stroke-width:0.29082498"
             sodipodi:nodetypes="sccccsssscccsss" />
          <path
             inkscape:connector-curvature="0"
             d="m 84.168646,106.37183 h -6.375343 v 25.21644 h 6.375343 z"
             style="font-style:normal;font-variant:normal;font-weight:900;font-stretch:normal;font-size:35.61643982px;font-family:'Uni Sans';-inkscape-font-specification:'Uni Sans, Heavy';font-variant-ligatures:normal;font-variant-caps:normal;font-variant-numeric:normal;font-feature-settings:normal;text-align:start;writing-mode:lr-tb;text-anchor:start;fill:#ffffff;fill-opacity:1;stroke-width:0.8904109"
             id="path4548" />
          <path
             inkscape:connector-curvature="0"
             d="m 86.947285,127.38553 c 2.350685,3.0274 5.556164,4.55891 8.583562,4.55891 4.630133,0 9.758903,-2.67124 9.972603,-7.55069 0.28493,-6.19726 -4.20274,-7.76438 -8.690412,-8.58356 -1.958904,-0.4274 -3.276712,-1.13973 -3.347945,-2.35069 0.106849,-2.92054 4.630137,-3.02739 7.265757,-0.21369 l 4.16712,-3.20548 c -2.6,-3.16987 -5.556164,-4.02466 -8.619178,-4.02466 -4.630137,0 -9.117809,2.6 -9.117809,7.55068 0,4.80822 3.70411,7.37261 7.764384,8.0137 2.065754,0.28493 4.380822,1.10411 4.309589,2.52877 -0.178082,2.70685 -5.734246,2.56438 -8.263014,-0.49863 z"
             style="font-style:normal;font-variant:normal;font-weight:900;font-stretch:normal;font-size:35.61643982px;font-family:'Uni Sans';-inkscape-font-specification:'Uni Sans, Heavy';font-variant-ligatures:normal;font-variant-caps:normal;font-variant-numeric:normal;font-feature-settings:normal;text-align:start;writing-mode:lr-tb;text-anchor:start;fill:#ffffff;fill-opacity:1;stroke-width:0.8904109"
             id="path4550" />
          <path
             inkscape:connector-curvature="0"
             d="m 121.68945,131.58827 h 7.94247 l -6.87397,-8.65479 c 3.06301,-0.96165 4.95068,-3.59726 4.95068,-8.26302 -0.14246,-5.91233 -4.16712,-8.29863 -9.36712,-8.29863 h -10.07945 v 25.21644 h 6.44657 v -8.0137 h 1.13973 z m -6.98082,-13.49863 v -5.76986 h 3.73973 c 4.02466,0 4.02466,5.76986 0,5.76986 z"
             style="font-style:normal;font-variant:normal;font-weight:900;font-stretch:normal;font-size:35.61643982px;font-family:'Uni Sans';-inkscape-font-specification:'Uni Sans, Heavy';font-variant-ligatures:normal;font-variant-caps:normal;font-variant-numeric:normal;font-feature-settings:normal;text-align:start;writing-mode:lr-tb;text-anchor:start;fill:#ffffff;fill-opacity:1;stroke-width:0.8904109"
             id="path4552" />
          <path
             inkscape:connector-curvature="0"
             d="m 137.38295,106.37183 h -6.44658 v 16.77535 c -0.0356,11.82465 20.08767,11.82465 20.12329,0 v -16.77535 h -6.44658 v 16.77535 c -0.0356,4.06027 -7.23013,4.06027 -7.23013,0 z"
             style="font-style:normal;font-variant:normal;font-weight:900;font-stretch:normal;font-size:35.61643982px;font-family:'Uni Sans';-inkscape-font-specification:'Uni Sans, Heavy';font-variant-ligatures:normal;font-variant-caps:normal;font-variant-numeric:normal;font-feature-settings:normal;text-align:start;writing-mode:lr-tb;text-anchor:start;fill:#ffffff;fill-opacity:1;stroke-width:0.8904109"
             id="path4554" />
          <path
             inkscape:connector-curvature="0"
             d="m 154.86951,131.58827 h 6.37534 v -7.3726 h 3.73973 c 6.09041,0 9.18904,-4.45206 9.18904,-8.93973 0,-4.45205 -3.06301,-8.90411 -9.22466,-8.90411 h -10.07945 z m 6.37534,-13.03561 v -6.23288 h 3.70411 c 3.84658,-0.0356 3.84658,6.26849 0,6.23288 z"
             style="font-style:normal;font-variant:normal;font-weight:900;font-stretch:normal;font-size:35.61643982px;font-family:'Uni Sans';-inkscape-font-specification:'Uni Sans, Heavy';font-variant-ligatures:normal;font-variant-caps:normal;font-variant-numeric:normal;font-feature-settings:normal;text-align:start;writing-mode:lr-tb;text-anchor:start;fill:#ffffff;fill-opacity:1;stroke-width:0.8904109"
             id="path4556" />
          <path
             inkscape:connector-curvature="0"
             d="m 195.19399,112.39101 v -6.05479 h -19.83835 v 6.05479 h 6.69589 v 19.19726 h 6.44657 v -19.19726 z"
             style="font-style:normal;font-variant:normal;font-weight:900;font-stretch:normal;font-size:35.61643982px;font-family:'Uni Sans';-inkscape-font-specification:'Uni Sans, Heavy';font-variant-ligatures:normal;font-variant-caps:normal;font-variant-numeric:normal;font-feature-settings:normal;text-align:start;writing-mode:lr-tb;text-anchor:start;fill:#ffffff;fill-opacity:1;stroke-width:0.8904109"
             id="path4558" />
        </g>
      </g>
      <g
         style="fill:#d8ff78;fill-opacity:1;stroke:#111111;stroke-opacity:1"
         id="svg_1"
         transform="matrix(0.26458333,0,0,0.26458333,31.14895,-8.527379)" />
      <g
         style="fill:#d8ff78;fill-opacity:1;stroke:#111111;stroke-opacity:1"
         id="svg_15"
         transform="matrix(0.22648158,0.13678609,-0.13678609,0.22648158,77.651534,-63.81852)" />
      <g
         style="fill:#d8ff78;fill-opacity:1;stroke:#111111;stroke-opacity:1"
         id="svg_1-3"
         transform="matrix(1.4371833,0,0,1.4371833,-207.47003,-333.89304)" />
      <g
         style="fill:#d8ff78;fill-opacity:1;stroke:#111111;stroke-opacity:1"
         id="svg_15-4"
         transform="matrix(1.2302194,0.74300479,-0.74300479,1.2302194,45.126139,-634.22754)" />
      <path
         style="color:#000000;font-style:normal;font-variant:normal;font-weight:normal;font-stretch:normal;font-size:medium;line-height:normal;font-family:sans-serif;font-variant-ligatures:normal;font-variant-position:normal;font-variant-caps:normal;font-variant-numeric:normal;font-variant-alternates:normal;font-feature-settings:normal;text-indent:0;text-align:start;text-decoration:none;text-decoration-line:none;text-decoration-style:solid;text-decoration-color:#000000;letter-spacing:normal;word-spacing:normal;text-transform:none;writing-mode:lr-tb;direction:ltr;text-orientation:mixed;dominant-baseline:auto;baseline-shift:baseline;text-anchor:start;white-space:normal;shape-padding:0;clip-rule:nonzero;display:inline;overflow:visible;visibility:visible;opacity:1;isolation:auto;mix-blend-mode:normal;color-interpolation:sRGB;color-interpolation-filters:linearRGB;solid-color:#000000;solid-opacity:1;vector-effect:none;fill:#111111;fill-opacity:1;fill-rule:nonzero;stroke:none;stroke-width:1.23425376;stroke-linecap:butt;stroke-linejoin:miter;stroke-miterlimit:4;stroke-dasharray:none;stroke-dashoffset:0;stroke-opacity:1;color-rendering:auto;image-rendering:auto;shape-rendering:auto;text-rendering:auto;enable-background:accumulate"
         d="m 139.96082,49.133002 c 0.40796,0.59057 0.56949,0.858884 0.69458,1.067575 1.96257,2.972686 3.18922,6.377641 3.84225,9.83731 l 8.7e-4,0.0054 8.7e-4,0.0054 c 0.47774,2.796302 0.67023,5.866632 -0.51251,8.662973 -0.82168,1.996382 -4.90989,3.993267 -6.86823,4.47994 -1.90937,0.526278 -2.2159,0.424288 -4.18598,0.689553 -1.10594,-5.602384 -1.79432,-6.504566 -3.04762,-10.167404 -0.0498,-0.248145 0.0524,-0.52986 0.1993,-0.694024 l 0.0987,-0.110129 0.13833,-0.05348 c 0.84141,-0.326103 1.62471,-0.150924 2.16144,-0.189838 l 0.0222,-0.0017 0.0222,-8.3e-5 c 1.95808,-0.0012 3.99771,-0.391116 5.25398,-1.76909 1.46622,-1.619891 1.78889,-4.008177 1.77603,-6.289688 -0.0673,-1.804115 0.0501,-3.370625 -0.66146,-4.855284 z"
         id="svg_34-9-8"
         inkscape:connector-curvature="0"
         sodipodi:nodetypes="ccccccccccccccccccc" />
      <path
         style="fill:#ffffff;fill-opacity:1;stroke-width:0.0544823"
         d="m 98.31395,53.127955 c -0.722173,0.0029 -6.69648,0.17247 -12.999066,4.855642 0,0 -6.72275,12.091711 -6.72275,26.984486 0,0 3.921539,6.722691 14.239105,7.049489 0,0 1.727367,-2.054181 3.12794,-3.828246 -5.929097,-1.774064 -8.170005,-5.462102 -8.170005,-5.462102 0,0 0.466959,0.326749 1.307302,0.793606 0.04668,0 0.09323,0.04663 0.186602,0.09326 0.14006,0.09339 0.28016,0.140058 0.420218,0.233435 1.167145,0.653598 2.334253,1.167212 3.408025,1.587387 1.91412,0.793656 4.201795,1.493873 6.862884,2.007424 3.501435,0.653597 7.609715,0.886995 12.091545,0.04663 2.19424,-0.420176 4.4353,-1.027016 6.76958,-2.007425 1.63401,-0.606915 3.45469,-1.493848 5.3688,-2.754374 0,0 -2.33424,3.781552 -8.45008,5.508935 1.40058,1.72737 3.08128,3.734757 3.08128,3.734757 10.31757,-0.326799 14.23912,-7.049514 14.23912,-7.002832 0,-14.892775 -6.72276,-26.984486 -6.72276,-26.984486 -6.67606,-4.995381 -13.07211,-4.855281 -13.07211,-4.855281 l -0.65347,0.746952 c 7.93658,2.380975 11.62468,5.882498 11.62468,5.882498 -4.85533,-2.614405 -9.61717,-3.921701 -14.05232,-4.435243 -3.36139,-0.373488 -6.58283,-0.280005 -9.43066,0.09348 -0.28011,0 -0.51349,0.04662 -0.793605,0.0933 -1.634003,0.186743 -5.602262,0.746927 -10.597643,2.941158 -1.727376,0.746973 -2.754557,1.307303 -2.754557,1.307303 0,0 3.828237,-3.688305 12.231683,-6.069282 L 98.38682,53.128264 c 0,0 -0.02473,-7.37e-4 -0.07287,-2.46e-4 z m -1.187599,17.227456 c 2.661089,0 4.808659,2.287534 4.761979,5.135371 0,2.847825 -2.10089,5.135541 -4.761979,5.135541 -2.61441,0 -4.76198,-2.287716 -4.76198,-5.135541 0,-2.847837 2.100888,-5.135371 4.76198,-5.135371 z m 17.040309,0 c 2.61441,0 4.76198,2.287534 4.76198,5.135371 0,2.847825 -2.10089,5.135541 -4.76198,5.135541 -2.61441,0 -4.76198,-2.287716 -4.76198,-5.135541 0,-2.847837 2.10089,-5.135371 4.76198,-5.135371 z"
         id="path8-9"
         inkscape:connector-curvature="0" />
      <path
         style="color:#000000;font-style:normal;font-variant:normal;font-weight:normal;font-stretch:normal;font-size:medium;line-height:normal;font-family:sans-serif;font-variant-ligatures:normal;font-variant-position:normal;font-variant-caps:normal;font-variant-numeric:normal;font-variant-alternates:normal;font-feature-settings:normal;text-indent:0;text-align:start;text-decoration:none;text-decoration-line:none;text-decoration-style:solid;text-decoration-color:#000000;letter-spacing:normal;word-spacing:normal;text-transform:none;writing-mode:lr-tb;direction:ltr;text-orientation:mixed;dominant-baseline:auto;baseline-shift:baseline;text-anchor:start;white-space:normal;shape-padding:0;clip-rule:nonzero;display:inline;overflow:visible;visibility:visible;opacity:1;isolation:auto;mix-blend-mode:normal;color-interpolation:sRGB;color-interpolation-filters:linearRGB;solid-color:#000000;solid-opacity:1;vector-effect:none;fill:#111111;fill-opacity:1;fill-rule:nonzero;stroke:none;stroke-width:1.23425376;stroke-linecap:butt;stroke-linejoin:miter;stroke-miterlimit:4;stroke-dasharray:none;stroke-dashoffset:0;stroke-opacity:1;color-rendering:auto;image-rendering:auto;shape-rendering:auto;text-rendering:auto;enable-background:accumulate"
         d="m 71.705759,49.132985 c -0.407962,0.59057 -0.569496,0.858883 -0.694585,1.067575 -1.96257,2.972686 -3.189216,6.37764 -3.842244,9.83731 l -9.57e-4,0.0054 -9.56e-4,0.0054 c -0.477747,2.796302 -0.670231,5.86663 0.512504,8.662977 0.821677,1.996383 4.909888,3.993269 6.868234,4.479942 1.909367,0.52629 2.215896,0.4243 4.185976,0.689565 1.105937,-5.602401 1.794322,-6.504586 3.04762,-10.167422 0.04977,-0.248147 -0.05233,-0.529859 -0.199301,-0.694023 L 81.483335,62.909566 81.345,62.856059 C 80.503536,62.529924 79.720238,62.7051 79.18351,62.666184 l -0.02219,-0.002 -0.02221,-8e-5 c -1.958081,-0.001 -3.997711,-0.391119 -5.25398,-1.769093 -1.466219,-1.619891 -1.788895,-4.008177 -1.77603,-6.289688 0.06728,-1.804116 -0.05008,-3.370625 0.661458,-4.855284 z"
         id="svg_34-9-1"
         inkscape:connector-curvature="0"
         sodipodi:nodetypes="ccccccccccccccccccc" />
    </g>
  </g>
  <style
     id="style830">.st0{fill:#FFFFFF;}</style>
  <style
     id="style830-2">.st0{fill:#FFFFFF;}</style>
</svg>
